Coordinates
version=1
nRows=16
nColumns=63
inDegrees=yes

Units are S.I. units (second, meters, Newtons, ...)
If the header above contains a line with 'inDegrees', this indicates whether rotational values are in degrees (yes) or radians (no).

endheader
time	pelvis_tilt	pelvis_list	pelvis_rotation	pelvis_tx	pelvis_ty	pelvis_tz	hip_flexion_r	hip_adduction_r	hip_rotation_r	knee_angle_r	knee_angle_r_beta	ankle_angle_r	subtalar_angle_r	mtp_angle_r	hip_flexion_l	hip_adduction_l	hip_rotation_l	knee_angle_l	knee_angle_l_beta	ankle_angle_l	subtalar_angle_l	mtp_angle_l	L5_S1_Flex_Ext	L5_S1_Lat_Bending	L5_S1_axial_rotation	L4_L5_Flex_Ext	L4_L5_Lat_Bending	L4_L5_axial_rotation	L3_L4_Flex_Ext	L3_L4_Lat_Bending	L3_L4_axial_rotation	L2_L3_Flex_Ext	L2_L3_Lat_Bending	L2_L3_axial_rotation	L1_L2_Flex_Ext	L1_L2_Lat_Bending	L1_L2_axial_rotation	L1_T12_Flex_Ext	L1_T12_Lat_Bending	L1_T12_axial_rotation	Abs_r3	Abs_r2	Abs_r1	Abs_t1	Abs_t2	neck_flexion	neck_bending	neck_rotation	arm_flex_r	arm_add_r	arm_rot_r	elbow_flex_r	pro_sup_r	wrist_flex_r	wrist_dev_r	arm_flex_l	arm_add_l	arm_rot_l	elbow_flex_l	pro_sup_l	wrist_flex_l	wrist_dev_l
2.118644	-2.567084	-3.911423	100.918227	0.090217	0.861587	0.619969	6.993262	0.042023	-1.695877	5.830032	0.101753	24.620967	-3.140592	0.000000	5.454629	1.235202	-8.728859	2.359119	0.041174	25.982991	9.514042	0.000000	0.192450	-0.907068	0.009280	0.357399	-1.206401	0.009860	0.316176	-2.205446	0.009860	0.219951	-2.205446	0.008120	0.178709	-1.849693	0.007540	0.109966	-1.405049	0.006960	1.374650	-10.260937	0.051613	0.000000	0.000000	25.603598	3.848308	-10.287834	-4.683889	-30.978883	10.718069	108.186016	77.365026	-14.419126	8.460410	-0.219342	-25.806710	44.103579	29.677835	76.895413	-12.297571	-2.301871
2.135593	-2.428590	-3.946244	101.334263	0.089512	0.861626	0.619702	6.863277	0.141051	-1.749935	5.488068	0.095785	24.569559	-3.242387	0.000000	5.591454	1.114393	-8.854995	2.559573	0.044673	26.112755	10.093700	0.000000	0.194308	-0.884810	-0.004157	0.360850	-1.176798	-0.004417	0.319229	-2.151328	-0.004417	0.222075	-2.151328	-0.003638	0.180435	-1.804305	-0.003378	0.111028	-1.370571	-0.003118	1.387924	-10.009150	-0.023122	0.000000	0.000000	25.740446	3.988558	-9.756732	-4.896926	-30.927290	9.967776	108.254547	77.542333	-14.315696	7.957541	-0.886793	-25.929773	43.287086	30.302772	76.632697	-12.059651	-3.471255
2.152542	-2.263342	-3.971446	101.818552	0.088699	0.861730	0.619403	6.712853	0.259616	-1.940066	5.126540	0.089475	24.543381	-3.231224	0.000000	5.731311	0.970040	-9.061288	2.791647	0.048723	26.229139	10.798833	0.000000	0.196267	-0.857402	-0.033154	0.364488	-1.140344	-0.035226	0.322448	-2.084687	-0.035226	0.224314	-2.084687	-0.029010	0.182254	-1.748414	-0.026938	0.112147	-1.328115	-0.024865	1.401918	-9.699100	-0.184392	0.000000	0.000000	25.853314	4.164772	-9.108057	-5.041944	-30.860372	9.248382	108.277931	77.904975	-14.297971	7.278092	-1.598916	-26.075828	42.383224	31.041555	76.583978	-11.836455	-4.572822
2.169492	-2.074467	-4.006897	102.328002	0.087841	0.861863	0.619077	6.574305	0.396433	-2.152822	4.764758	0.083161	24.519716	-3.224854	0.000000	5.887379	0.806960	-9.363444	3.041061	0.053077	26.331061	11.606614	0.000000	0.199894	-0.824901	-0.065878	0.371224	-1.097118	-0.069995	0.328406	-2.005664	-0.069995	0.228459	-2.005664	-0.057643	0.185622	-1.682138	-0.053526	0.114220	-1.277771	-0.049409	1.427824	-9.331442	-0.366394	0.000000	0.000000	25.940408	4.337149	-8.373353	-5.192523	-30.774578	8.494975	108.332163	78.485540	-14.368786	6.617656	-2.345620	-26.234522	41.349629	31.900234	76.820939	-11.631682	-5.571449
2.186441	-1.876308	-4.025055	102.888848	0.086922	0.862058	0.618787	6.421974	0.534989	-2.574872	4.419396	0.077133	24.530383	-3.029479	0.000000	6.032904	0.637115	-9.705983	3.298335	0.057567	26.420790	12.509319	0.000000	0.197949	-0.788010	-0.111655	0.367611	-1.048054	-0.118634	0.325210	-1.915968	-0.118634	0.226236	-1.915968	-0.097698	0.183815	-1.606911	-0.090720	0.113108	-1.220628	-0.083742	1.413930	-8.914130	-0.620994	0.000000	0.000000	26.025491	4.559778	-7.487052	-5.319581	-30.691998	7.772476	108.393940	78.949043	-14.439803	5.870346	-3.094360	-26.429573	40.287321	32.891841	77.028529	-11.434367	-6.387342
2.203390	-1.675235	-4.078280	103.407460	0.086069	0.862211	0.618469	6.313128	0.681065	-2.834809	4.084091	0.071281	24.477873	-3.037869	0.000000	6.203955	0.473197	-10.021168	3.535510	0.061706	26.495917	13.344434	0.000000	0.199410	-0.748621	-0.142900	0.370325	-0.995666	-0.151831	0.327611	-1.820198	-0.151831	0.227906	-1.820198	-0.125038	0.185172	-1.526588	-0.116106	0.113943	-1.159614	-0.107175	1.424367	-8.468553	-0.794768	0.000000	0.000000	26.098501	4.699505	-6.599343	-5.569540	-30.598187	6.926668	108.588571	79.335548	-14.467385	5.424413	-3.830732	-26.651942	39.177871	34.003271	77.351120	-11.217776	-7.064225
2.220339	-1.483102	-4.142264	103.894823	0.085221	0.862354	0.618237	6.242713	0.803691	-3.276269	3.808498	0.066471	24.452380	-2.821519	0.000000	6.377218	0.329586	-10.289884	3.737617	0.065234	26.557955	14.130647	0.000000	0.198893	-0.706480	-0.169617	0.369365	-0.939618	-0.180218	0.326762	-1.717735	-0.180218	0.227315	-1.717735	-0.148415	0.184692	-1.440654	-0.137814	0.113648	-1.094337	-0.127213	1.420675	-7.991843	-0.943357	0.000000	0.000000	26.182527	4.790605	-5.627319	-5.836893	-30.559368	6.079507	108.850566	79.331041	-14.379129	5.175887	-4.494661	-26.902276	38.216292	35.173304	77.484313	-11.032715	-7.601629
2.237288	-1.293544	-4.237251	104.312970	0.084454	0.862424	0.618059	6.232559	0.926477	-3.559903	3.582240	0.062522	24.342215	-2.821234	0.000000	6.568863	0.198854	-10.373603	3.896721	0.068011	26.595990	14.657169	0.000000	0.201960	-0.662561	-0.186057	0.375061	-0.881206	-0.197685	0.331801	-1.610951	-0.197685	0.230821	-1.610951	-0.162800	0.187541	-1.351095	-0.151171	0.115400	-1.026307	-0.139543	1.442584	-7.495023	-1.034791	0.000000	0.000000	26.240033	4.754469	-4.676497	-6.113796	-30.571569	5.228173	109.178601	78.950199	-14.148154	5.321631	-5.122171	-27.167009	37.383138	36.417433	77.575737	-10.857157	-7.896867
2.254237	-1.121059	-4.351798	104.646043	0.083736	0.862429	0.617984	6.279198	1.026109	-3.818366	3.425689	0.059790	24.201737	-2.839636	0.000000	6.771021	0.093297	-10.418726	4.026451	0.070275	26.642919	15.108843	0.000000	0.206592	-0.617997	-0.193346	0.383662	-0.821935	-0.205430	0.339410	-1.502597	-0.205430	0.236114	-1.502597	-0.169177	0.191841	-1.260219	-0.157093	0.118047	-0.957277	-0.145009	1.475665	-6.990900	-1.075331	0.000000	0.000000	26.277740	4.631818	-3.717920	-6.333651	-30.653924	4.432904	109.516331	78.174605	-13.774227	5.725569	-5.714004	-27.432191	36.665641	37.704179	77.628478	-10.715703	-7.970464
2.271186	-0.970720	-4.463072	104.916339	0.083010	0.862390	0.618055	6.334439	1.097383	-4.069961	3.279489	0.057238	24.011812	-2.853442	0.000000	6.954378	0.021519	-10.382823	4.108090	0.071700	26.691405	15.457971	0.000000	0.208148	-0.572641	-0.194116	0.386551	-0.761613	-0.206249	0.341966	-1.392320	-0.206249	0.237892	-1.392320	-0.169852	0.193286	-1.167730	-0.157720	0.118935	-0.887021	-0.145587	1.486777	-6.477832	-1.079617	0.000000	0.000000	26.309661	4.462807	-2.703175	-6.478100	-30.795833	3.685968	109.848078	77.210274	-13.314844	6.302699	-6.238222	-27.688619	36.116997	38.971168	77.686945	-10.625559	-7.974786
2.288136	-0.838253	-4.583535	105.081867	0.082356	0.862306	0.618287	6.442015	1.156279	-4.110106	3.196014	0.055781	23.750081	-3.106578	0.000000	7.138450	-0.026159	-10.274336	4.160819	0.072620	26.734654	15.629113	0.000000	0.210655	-0.527857	-0.188368	0.391207	-0.702050	-0.200140	0.346085	-1.283432	-0.200140	0.240757	-1.283432	-0.164822	0.195614	-1.076406	-0.153049	0.120368	-0.817651	-0.141276	1.504687	-5.971227	-1.047644	0.000000	0.000000	26.255003	4.237798	-1.729691	-6.475336	-31.004354	3.093689	110.111085	76.188782	-12.833946	6.985337	-6.745898	-27.924688	35.632915	40.205345	77.676907	-10.588512	-7.879528
2.305085	-0.723037	-4.721266	105.142534	0.081798	0.862171	0.618699	6.632939	1.190057	-4.148892	3.225713	0.056299	23.524392	-3.278262	0.000000	7.335700	-0.052596	-10.153418	4.192996	0.073182	26.771277	15.667552	0.000000	0.213973	-0.485247	-0.174023	0.397369	-0.645379	-0.184900	0.351536	-1.179830	-0.184900	0.244550	-1.179830	-0.152270	0.198695	-0.989516	-0.141394	0.122264	-0.751648	-0.130517	1.528387	-5.489215	-0.967865	0.000000	0.000000	26.128416	3.960681	-0.874952	-6.355936	-31.248910	2.629894	110.290495	75.076830	-12.315300	7.675168	-7.235721	-28.149237	35.186044	41.425007	77.635365	-10.666018	-7.577332
2.322034	-0.630343	-4.857796	105.149382	0.081292	0.862023	0.619259	6.845639	1.208381	-4.044742	3.280333	0.057253	23.277566	-3.608509	0.000000	7.532047	-0.057095	-10.097011	4.219503	0.073644	26.805115	15.720455	0.000000	0.214443	-0.445687	-0.163003	0.398241	-0.592764	-0.173190	0.352308	-1.083644	-0.173190	0.245086	-1.083644	-0.142627	0.199131	-0.908846	-0.132440	0.122532	-0.690370	-0.122252	1.531742	-5.041704	-0.906572	0.000000	0.000000	25.914196	3.656582	-0.138475	-6.108878	-31.523399	2.354336	110.396674	74.142325	-11.971728	8.329601	-7.755681	-28.336686	34.621922	42.607316	77.644098	-10.808910	-7.145829
2.338983	-0.555332	-5.021011	105.087599	0.080843	0.861826	0.619925	7.136858	1.193938	-4.033114	3.430849	0.059880	23.132557	-3.720336	0.000000	7.750811	-0.038549	-10.045159	4.237292	0.073955	26.820694	15.667390	0.000000	0.215576	-0.409960	-0.138597	0.400346	-0.545246	-0.147259	0.354169	-0.996776	-0.147259	0.246381	-0.996776	-0.121272	0.200184	-0.835990	-0.112610	0.123180	-0.635028	-0.103947	1.539835	-4.637546	-0.770833	0.000000	0.000000	25.653214	3.326532	0.397518	-5.867212	-31.788022	2.089329	110.459524	73.116606	-11.601195	8.967623	-8.227044	-28.495778	34.110787	43.721464	77.595434	-11.048209	-6.542700
2.355932	-0.484229	-5.219659	104.975540	0.080484	0.861558	0.620721	7.523278	1.160785	-4.129700	3.685752	0.064329	23.095415	-3.608534	0.000000	8.017329	-0.018621	-10.064108	4.269948	0.074525	26.817311	15.621755	0.000000	0.216865	-0.377549	-0.105587	0.402739	-0.502140	-0.112186	0.356287	-0.917972	-0.112186	0.247854	-0.917972	-0.092389	0.201380	-0.769897	-0.085789	0.123916	-0.584823	-0.079190	1.549042	-4.270906	-0.587243	0.000000	0.000000	25.417533	2.942189	0.706337	-5.601026	-32.034361	1.828309	110.481308	72.017836	-11.127913	9.603937	-8.658493	-28.638331	33.609629	44.772552	77.545002	-11.301524	-5.826795
2.372881	-0.429884	-5.431472	104.849147	0.080130	0.861264	0.621533	7.942735	1.097976	-4.308859	3.985974	0.069568	23.160125	-3.337735	0.000000	8.287019	0.022892	-10.094395	4.288521	0.074849	26.783032	15.567861	0.000000	0.218055	-0.349034	-0.067147	0.404949	-0.464215	-0.071344	0.358242	-0.848641	-0.071344	0.249215	-0.848641	-0.058754	0.202486	-0.711750	-0.054557	0.124596	-0.540654	-0.050360	1.557543	-3.948343	-0.373452	0.000000	0.000000	25.180307	2.550948	0.847377	-5.327959	-32.251705	1.585537	110.494238	71.331897	-10.928614	10.110379	-9.030697	-28.749975	33.183114	45.716072	77.376048	-11.497111	-5.018333
